<?xml version="1.0" encoding="UTF-8" standalone="no"?> <svg width="64" height="64" viewBox="0 0 64 64" fill="none" xmlns="http://www.w3.org/2000/svg">
<path d="M14.58 28.36L3 26.73V24.71L11.81 25.95C12.2474 26.0087 12.6663 26.1639 13.0364 26.4043C13.4065 26.6446 13.7185 26.9643 13.95 27.34L14.58 28.36Z" fill="black"/>
<path d="M6.18 29.19L5.35 35.14L3 34.81V28.75L6.18 29.19Z" fill="black"/>
<path d="M29.42 50.64L29.7 48.66L25.74 48.1C25.2149 48.0257 24.7408 47.7458 24.422 47.322C24.1032 46.8982 23.9658 46.3651 24.04 45.84L24.32 43.86C24.3549 43.5992 24.4413 43.3479 24.5743 43.1208C24.7072 42.8936 24.8839 42.6952 25.0942 42.537C25.3045 42.3788 25.5442 42.264 25.7993 42.1993C26.0543 42.1346 26.3197 42.1212 26.58 42.16L29.52 42.57C29.4133 42.3655 29.293 42.1684 29.16 41.98C28.7649 41.4552 28.2699 41.0136 27.7036 40.6807C27.1373 40.3477 26.5107 40.13 25.86 40.04L21.9 39.48L7.05001 37.4L5.10001 51.26L11.12 52.1C11.5909 50.486 12.6273 49.0956 14.0395 48.1834C15.4518 47.2711 17.1453 46.898 18.8102 47.1324C20.475 47.3667 21.9997 48.1929 23.1052 49.4596C24.2107 50.7263 24.823 52.3487 24.83 54.03L27.88 54.46C28.1421 54.4944 28.4073 54.4246 28.6186 54.2657C28.8298 54.1068 28.9704 53.8714 29.01 53.61L29.15 52.62L26.17 52.2L26.45 50.22L29.42 50.64ZM12.43 42.19L8.47001 41.63L8.75001 39.65L12.71 40.21L12.43 42.19Z" fill="black"/>
<path d="M5.07 37.12L3.12 50.98L3 50.96V36.83L5.07 37.12Z" fill="black"/>
<path d="M15.946 30.567L8.163 29.473L7.328 35.415L20.068 37.205L15.947 30.561L15.946 30.567Z" fill="black"/>
<path d="M18.53 49.11C18.2951 49.0735 18.0576 49.0567 17.82 49.06C16.739 49.0563 15.6874 49.4116 14.83 50.07C14.3035 50.4621 13.86 50.9548 13.5253 51.5196C13.1906 52.0843 12.9712 52.7099 12.88 53.36C12.7414 54.3392 12.8962 55.3375 13.325 56.2287C13.7538 57.1199 14.4373 57.8639 15.2889 58.3666C16.1406 58.8694 17.1222 59.1082 18.1096 59.0531C19.0971 58.9979 20.0459 58.6511 20.8363 58.0566C21.6266 57.4621 22.2229 56.6466 22.5497 55.7132C22.8765 54.7798 22.9192 53.7704 22.6723 52.8127C22.4255 51.8551 21.9002 50.9921 21.1628 50.333C20.4255 49.674 19.5092 49.2483 18.53 49.11V49.11ZM18.69 55.19L16.71 54.91L16.98 52.93L18.96 53.21L18.69 55.19Z" fill="black"/>
<path d="M30.12 45.687C30.166 45.3558 30.1791 45.0208 30.159 44.687L26.3 44.14L26.022 46.12L29.982 46.677L30.12 45.687Z" fill="black"/>
<path d="M41.85 29.24L61 27.57V25.57L40.57 27.35C40.0209 27.3983 39.4955 27.5963 39.0512 27.9225C38.6068 28.2487 38.2605 28.6906 38.05 29.2L34.3 38.33C34.18 38.68 34.09 39.03 34 39.38L37.45 41.11C37.5912 41.1804 37.7138 41.2833 37.8076 41.4102C37.9015 41.5371 37.964 41.6843 37.99 41.84C38.0133 41.9968 38.0001 42.1568 37.9515 42.3077C37.903 42.4586 37.8203 42.5962 37.71 42.71L36.41 44L37.71 45.29C37.8151 45.399 37.8948 45.53 37.9432 45.6736C37.9916 45.8171 38.0076 45.9696 37.99 46.12C37.9742 46.2713 37.9235 46.4168 37.8419 46.5452C37.7604 46.6736 37.6502 46.7814 37.52 46.86L33.99 48.97L34.08 50L37.07 49.74L37.25 51.73L34.26 51.99L34.34 52.99C34.3687 53.2543 34.4976 53.4976 34.7 53.67C34.9041 53.8388 35.166 53.9213 35.43 53.9L38.5 53.63C38.5884 51.9488 39.2811 50.3562 40.4505 49.1451C41.6199 47.934 43.1873 47.1861 44.8643 47.0388C46.5414 46.8915 48.2152 47.3549 49.5777 48.3437C50.9403 49.3324 51.8999 50.78 52.28 52.42L58.34 51.89L57.12 37.95L40.4 39.41C40.34 39.41 40.29 39.42 40.23 39.42C39.9493 39.418 39.6722 39.3573 39.4163 39.242C39.1604 39.1266 38.9315 38.959 38.7441 38.75C38.5568 38.541 38.4151 38.2952 38.3283 38.0283C38.2415 37.7613 38.2114 37.4792 38.24 37.2L39.15 31.74C39.261 31.0837 39.586 30.4826 40.0744 30.0304C40.5628 29.5781 41.1871 29.3002 41.85 29.24ZM45.34 40.99L45.51 42.98L41.53 43.33L41.36 41.33L45.34 40.99Z" fill="black"/>
<path d="M48.69 50.19C47.7946 49.4351 46.6612 49.0207 45.49 49.02C45.34 49.02 45.19 49.03 45.04 49.04C44.3863 49.0977 43.7505 49.2838 43.1688 49.5875C42.5871 49.8912 42.071 50.3066 41.65 50.81C41.2253 51.3114 40.9048 51.8924 40.7074 52.5192C40.5099 53.1459 40.4394 53.8057 40.5 54.46C40.5717 55.2794 40.8444 56.0685 41.294 56.7573C41.7435 57.4461 42.3561 58.0133 43.0774 58.4087C43.7986 58.8041 44.6063 59.0155 45.4288 59.0241C46.2513 59.0327 47.0632 58.8382 47.7925 58.458C48.5219 58.0777 49.1462 57.5234 49.61 56.8441C50.0739 56.1649 50.363 55.3817 50.4518 54.5639C50.5406 53.7462 50.4262 52.9192 50.1189 52.1562C49.8116 51.3933 49.3208 50.7179 48.69 50.19V50.19ZM44.57 55.11L44.39 53.11L46.39 52.94L46.56 54.93L44.57 55.11Z" fill="black"/>
<path d="M35.312 42.274L33.625 41.431C33.5182 42.4069 33.5065 43.3908 33.59 44.369L33.799 46.757L35.388 45.802L34.293 44.707C34.1055 44.5195 34.0002 44.2652 34.0002 44C34.0002 43.7348 34.1055 43.4805 34.293 43.293L35.312 42.274Z" fill="black"/>
<path d="M61 37.61V51.66L60.33 51.72L59.11 37.77L61 37.61Z" fill="black"/>
<path d="M41.127 32.068L40.222 37.468L56.947 35.963L56.423 29.973L42.023 31.233C41.8022 31.2532 41.5944 31.3461 41.4322 31.4973C41.27 31.6484 41.1626 31.8492 41.127 32.068Z" fill="black"/>
<path d="M61 29.58V35.6L58.94 35.79L58.42 29.8L61 29.58Z" fill="black"/>
<path d="M34.586 24H31C30.7348 24 30.4804 23.8946 30.2929 23.7071C30.1054 23.5196 30 23.2652 30 23V20.414L26.707 23.707C26.5195 23.8945 26.2652 23.9998 26 23.9998C25.7348 23.9998 25.4805 23.8945 25.293 23.707L22 20.414V23C22 23.2652 21.8946 23.5196 21.7071 23.7071C21.5196 23.8946 21.2652 24 21 24H18.414L19.707 25.293L19 26L20 27H33L32.293 26.293L34.586 24Z" fill="black"/>
<path d="M24.3 16H26.3C26.3004 15.8065 26.3421 15.6154 26.4223 15.4393C26.5025 15.2633 26.6193 15.1063 26.765 14.979C27.3645 14.3594 27.6996 13.5311 27.6996 12.669C27.6996 11.8069 27.3645 10.9786 26.765 10.359C26.6187 10.2315 26.5013 10.0742 26.4209 9.89753C26.3406 9.72089 26.299 9.52907 26.299 9.335C26.299 9.14093 26.3406 8.94911 26.4209 8.77247C26.5013 8.59583 26.6187 8.43847 26.765 8.311C27.3678 7.69315 27.7036 6.86316 27.7 6H25.7C25.6997 6.19403 25.658 6.38576 25.5777 6.56236C25.4973 6.73897 25.3801 6.89636 25.234 7.024C24.6349 7.64413 24.3 8.47272 24.3 9.335C24.3 10.1973 24.6349 11.0259 25.234 11.646C25.3801 11.7733 25.4973 11.9304 25.5776 12.1068C25.6578 12.2832 25.6994 12.4747 25.6994 12.6685C25.6994 12.8623 25.6578 13.0538 25.5776 13.2302C25.4973 13.4066 25.3801 13.5637 25.234 13.691C24.6312 14.3079 24.2956 15.1375 24.3 16V16Z" fill="black"/>
<path d="M30.3 14H32.3C32.3004 13.8065 32.3421 13.6154 32.4223 13.4393C32.5025 13.2633 32.6193 13.1063 32.765 12.979C33.3645 12.3594 33.6996 11.5311 33.6996 10.669C33.6996 9.8069 33.3645 8.97856 32.765 8.359C32.6187 8.23153 32.5013 8.07417 32.4209 7.89753C32.3406 7.72089 32.299 7.52907 32.299 7.335C32.299 7.14093 32.3406 6.94911 32.4209 6.77247C32.5013 6.59583 32.6187 6.43847 32.765 6.311C33.3678 5.69315 33.7036 4.86316 33.7 4H31.7C31.6997 4.19403 31.658 4.38576 31.5777 4.56236C31.4973 4.73897 31.3801 4.89636 31.234 5.024C30.6349 5.64413 30.3 6.47272 30.3 7.335C30.3 8.19728 30.6349 9.02587 31.234 9.646C31.3801 9.77328 31.4973 9.93041 31.5776 10.1068C31.6578 10.2832 31.6994 10.4747 31.6994 10.6685C31.6994 10.8623 31.6578 11.0538 31.5776 11.2302C31.4973 11.4066 31.3801 11.5637 31.234 11.691C30.6312 12.3079 30.2956 13.1375 30.3 14Z" fill="black"/>
<path d="M32.71 34.29L31.29 35.71L29.87 34.29L24.55 37.83L22.18 37.5L21.58 37.42L29.45 32.17C29.6416 32.0416 29.8718 31.9834 30.1014 32.0053C30.331 32.0272 30.546 32.1278 30.71 32.29L32.71 34.29Z" fill="black"/>
</svg>
