<?xml version="1.0" encoding="utf-8"?>
<!-- Generator: Adobe Illustrator 23.0.2, SVG Export Plug-In . SVG Version: 6.00 Build 0)  -->
<svg version="1.1" id="Layer_1" xmlns="http://www.w3.org/2000/svg" xmlns:xlink="http://www.w3.org/1999/xlink" x="0px" y="0px"
	 viewBox="0 0 299.4002 272.206" enable-background="new 0 0 299.4002 272.206" xml:space="preserve">
<g>
	<path d="M101.014,94.3447c1.1562,2.0674,2.2607,4.375,3.2783,6.9678c1.0381,2.623,1.9561,5.4414,2.7695,8.4394V21.9023h90.1197
		v72.8741l-16.2969-10.4649l-14.7207,1.4258l-4.2832-17.6699l-15.3418,13.6982l-13.0054-1.9502l24.9878,32.2236l-36.2505-8.8925
		l32.1529,32.8955l-3.3731,23.7636h-39.5893c-0.0538,1.9854-0.1211,3.9942-0.2129,6.0489h188.1518v-150H101.014V94.3447z
		 M157.5994,135.001l-25.8432-26.4395l34.4175,8.4434L140.492,83.8926l6.9942,1.0498l0.5273-0.4698l12.1309-10.8339l3.7168,15.331
		l16.2793-1.5732l17.0371,10.9433v61.4658H154.078L157.5994,135.001z M293.3514,159.8056h-90.1211V21.9023h90.1211V159.8056z"/>
	<rect x="121.3968" y="46.057" transform="matrix(0.7074 -0.7069 0.7069 0.7074 5.17 106.8011)" width="20.3463" height="2.1993"/>
	
		<rect x="129.4328" y="54.0932" transform="matrix(0.7073 -0.7069 0.7069 0.7073 1.8452 114.8421)" width="20.3455" height="2.1993"/>
	<rect x="106.7381" y="49.7869" transform="matrix(0.7069 -0.7073 0.7073 0.7069 3.8326 111.021)" width="58.277" height="2.1983"/>
	<rect x="232.7" y="82.1918" transform="matrix(0.7073 -0.7069 0.7069 0.7073 12.2038 196.0589)" width="20.3459" height="2.1994"/>
	
		<rect x="240.7351" y="90.2279" transform="matrix(0.7073 -0.7069 0.7069 0.7073 8.8752 204.0915)" width="20.3459" height="2.1994"/>
	
		<rect x="218.0412" y="85.9216" transform="matrix(0.7071 -0.7071 0.7071 0.7071 10.8669 200.2755)" width="58.2766" height="2.1983"/>
	<polygon points="88.013,242.5215 88.6204,242.5215 296.6795,242.5215 296.6795,238.5215 88.6204,238.5215 88.013,238.5215 	"/>
	<polygon points="22.68,238.5215 22.5277,238.5215 13.18,238.5215 13.18,242.5215 22.5277,242.5215 22.68,242.5215 	"/>
	<path d="M55.0472,53.9941c0.2705,2.7656-0.5557,5.4698-2.3233,7.6133c-1.7675,2.1465-4.2636,3.4717-7.0312,3.7373
		c-1.7822,0.1699-3.4512,0.3496-5.0195,0.5381c0.1103,1.2148,0.3134,2.4033,0.6103,3.5547
		c0.6592,2.5644,1.7617,4.9492,3.2168,7.0742c0.8955,1.3066,1.9268,2.5117,3.0703,3.5996h27.3203
		c0.1377,0,0.2745,0.0078,0.3975,0.0186c0.8213,0.0107,1.8291,0.0859,2.9727,0.2832c1.0185-0.9326,1.9511-1.958,2.7841-3.0625
		c2.8418-3.7666,4.5293-8.4541,4.5293-13.5371c0-12.4268-10.0742-22.5-22.5-22.5c-3.6269,0-7.0488,0.8623-10.082,2.3867
		c-1.2012,0.6025-2.3437,1.3056-3.4092,2.1054C52.5736,47.3896,54.7015,50.3906,55.0472,53.9941z"/>
	<path d="M43.9271,47.0332c-10.7403,1.043-18.916,2.4609-25.2754,4.2969c-6.3379,1.8906-11.0176,4-14.6445,7.7402
		c-2.3965,2.4502-4.0606,6.1152-4.0059,9.6738c0.0107,3.1719,1.083,5.8584,2.3721,8.0049c1.3115,2.165,2.8955,3.9326,4.5986,5.5479
		c3.4082,3.1972,7.3828,5.8232,11.2617,8.1005c3.7881,2.2081,7.4824,4.043,10.2949,5.3545v160.8809
		c0,6.8301,5.5371,12.3633,12.3653,12.3633c6.8261,0,12.3633-5.5332,12.3633-12.3633v-90.2715h4.6347v90.2715
		c0,6.8301,5.5371,12.3633,12.3653,12.3633c6.8261,0,12.3632-5.5332,12.3632-12.3633v-150.002
		c3.4678,7.1006,6.9981,20.7032,6.9649,44.917c0,5.5127-0.1778,11.5703-0.5684,18.2227c-0.2578,4.4111,3.1074,8.1963,7.5176,8.4551
		c0.1602,0.0088,0.3184,0.0136,0.4756,0.0136c4.2041,0,7.7305-3.2822,7.9795-7.5322c0.4072-6.9355,0.5957-13.3037,0.5957-19.1592
		c-0.0137-22.6582-2.7715-37.664-6.8789-48.0439C94.6488,93.165,88.8509,87.3301,83.472,84.6631
		c-3.4131-1.7207-6.4111-2.1094-8.2148-2.1328c-0.1221-0.0059-0.2422-0.0186-0.3653-0.0186H38.0882
		c-0.126-0.0547-0.2578-0.1133-0.3975-0.1738c-1.207-0.5313-2.9199-1.3106-4.873-2.2715
		c-3.8936-1.9121-8.7803-4.6133-12.3223-7.2891c-1.7207-1.2627-3.08-2.5781-3.8418-3.4863
		c0.5469-0.3379,1.3262-0.7559,2.3672-1.1836c4.3721-1.8623,12.9951-3.8711,26.4453-5.1504
		c4.3985-0.4238,7.6192-4.334,7.1934-8.7314C52.2357,49.8281,48.3255,46.6074,43.9271,47.0332z"/>
	<path d="M170.7537,247.5556l-29.998,7.9991l0.0508,1.9463l28.039,5.9033l-6.0703-7.6846l8.8242-6.3877L170.7537,247.5556z
		 M159.9139,255.3222l3.9355,4.9844l-18.5234-3.9004l20.7266-5.5273L159.9139,255.3222z"/>
	<path d="M165.3748,270.5381l2.5176,0.3086l11.2129,1.3593l11.707-3.6806l22.1563,0.9931l0.457-1.9062l-15.4141-7.0401
		l-14.2128-3.4658L165.3748,270.5381z M197.3455,262.4678l10.5684,4.8242l-17.3672-0.7783l-11.6289,3.6552l-8.2637-1.0029
		l13.5723-9.8965L197.3455,262.4678z"/>
	<path d="M184.0233,250.3076l2.3066,1.1133l9.4473,4.5508l11.3261-5.8721l-9.2832-3.9756L184.0233,250.3076z M195.7459,253.7344
		l-6.2363-3.001l8.1934-2.4844l4.7207,2.0225L195.7459,253.7344z"/>
	<path d="M135.9866,253.2959l-8.7519-5.8301l-10.5274,1.8311l2.086,1.3886l5.2851,3.5235L135.9866,253.2959z M126.7894,249.5722
		l3.2597,2.1739l-5.4355,0.417l-2.6309-1.7539L126.7894,249.5722z"/>
	<path d="M205.7088,255.6328l2.082,1.3877l5.2872,3.5234l11.9043-0.914l-8.7481-5.8291L205.7088,255.6328z M213.6131,258.4971
		l-2.6308-1.754l4.8046-0.8369l3.2598,2.1739L213.6131,258.4971z"/>
	<path d="M136.3128,262.1181l-12.3515,5.1465l0.3847,1.9239h12.4234l13.2109-2.3604L136.3128,262.1181z M136.5897,267.1865h-7.2417
		l7.0322-2.9297l5.6685,1.9541L136.5897,267.1865z"/>
	<path d="M100.6878,260.2431l0.209,1.9375l11.4883,1.3526l11.4961-2.3652l0.0615-1.9434l-11.2959-3.082L100.6878,260.2431z
		 M119.3831,260.0517l-7.084,1.458l-6.8046-0.8007l7.2187-2.4776L119.3831,260.0517z"/>
	<path d="M144.826,205.2764v9.2773h-11.3862v11.2793h22.771h1.998h22.7695v-1.001v-10.2783h-11.3828v-9.2773H144.826z
		 M146.826,207.2764h20.7695v7.2773h-9.3867h-1.998h-9.3848V207.2764z M135.4378,223.831v-7.2744h20.7691l0.0019,7.2744H135.4378z
		 M178.9803,223.831h-20.7715v-7.2773h11.3867h9.3828L178.9803,223.831z"/>
	<path d="M95.3245,19.5556v-8.2773h11.3858v-1.001V0H81.9378v9.2773H70.5531v11.2783h24.7714V19.5556z M83.9378,1.999h20.7715
		v7.2783h-9.3848H83.9378V1.999z M93.3265,18.5547H72.5521v-7.2764h9.3857h11.3887V18.5547z"/>
	<path d="M286.8651,199.0556v-1v-10.2783h-11.3868v-9.2783h-24.7675v11.2793h11.3828v9.2773H286.8651z M284.867,197.0537h-20.7754
		v-7.2754h11.3867v-0.001h9.3887V197.0537z M252.7088,180.5h20.7715v7.2764h-20.7715V180.5z"/>
</g>
</svg>
