<?xml version="1.0" encoding="UTF-8"?>
<!DOCTYPE svg PUBLIC "-//W3C//DTD SVG 1.1//EN" "http://www.w3.org/Graphics/SVG/1.1/DTD/svg11.dtd">
<!-- Creator: CorelDRAW -->
<svg xmlns="http://www.w3.org/2000/svg" xml:space="preserve" width="1.70666in" height="1.70666in" version="1.1" style="shape-rendering:geometricPrecision; text-rendering:geometricPrecision; image-rendering:optimizeQuality; fill-rule:evenodd; clip-rule:evenodd"
viewBox="0 0 1707 1707"
 xmlns:xlink="http://www.w3.org/1999/xlink">
 <defs>
  <style type="text/css">
   <![CDATA[
    .fil0 {fill:#000000}
   ]]>
  </style>
 </defs>
 <g id="Layer_x0020_1">
  <metadata id="CorelCorpID_0Corel-Layer"/>
  <path class="fil0" d="M1185 543l-771 0c-35,0 -35,-53 0,-53l771 0c35,0 35,53 0,53zm-229 -142l-313 0c-35,0 -35,-53 0,-53l313 0c35,0 35,53 0,53zm155 1117l-822 0c-14,0 -26,-12 -26,-27l0 -1298c0,-15 12,-27 26,-27l287 0 0 -35c0,-35 44,-27 78,-27 3,-58 51,-104 109,-104l73 0c58,0 106,46 109,104 34,0 78,-8 78,27l0 35 287 0c14,0 26,12 26,27l0 1224 80 95c65,76 11,195 -90,195 -36,0 -68,-15 -91,-42l-124 -147zm-482 -1322c1,11 0,23 0,32l0 1 342 0c0,-10 -2,-22 0,-33l0 -39c-71,0 -79,7 -79,-48 0,-31 -25,-56 -56,-56l-73 0c-31,0 -56,25 -56,56 0,55 -8,48 -78,48l0 39zm446 1196l69 81c1,2 2,4 3,6l128 151c37,44 110,23 116,-36 2,-18 -4,-35 -15,-48l-201 -239c-28,35 -61,63 -100,85zm-759 73l750 0 -41 -50c-37,13 -76,20 -116,20 -79,0 -152,-26 -210,-71 -19,-15 -37,-32 -53,-51 -12,-14 -23,-28 -32,-44l-1 -2c-1,-1 -2,-3 -2,-4 -34,-58 -51,-127 -45,-200 7,-70 34,-136 78,-190l0 0c2,-2 4,-4 5,-6l1 -1c2,-1 3,-3 5,-5l1 -1c2,-2 3,-3 4,-5l3 -2 3 -4 3 -2c1,-2 2,-3 3,-4l3 -2c2,-2 3,-3 5,-4l1 -1c2,-2 4,-4 6,-6l0 0 0 0c3,-3 7,-5 10,-8l2 -2c3,-2 5,-4 8,-5 86,-63 185,-78 275,-57 63,14 123,45 171,94 66,67 106,160 97,270 -5,51 -20,98 -44,140l77 92 0 -1135 -260 0c0,9 2,22 0,33l0 3c0,8 -3,14 -7,19l0 0c-3,3 -6,5 -10,6 -3,1 -6,2 -9,2l-395 0c-3,0 -6,-1 -9,-2 -4,-1 -7,-3 -10,-6l0 0 0 0c-4,-5 -7,-11 -7,-19l0 -3c-1,-11 0,-24 0,-33l-260 0 0 1246zm591 -663l0 0c-3,0 -6,0 -9,1 -2,0 -4,0 -5,0l-1 0c-61,3 -121,26 -171,68 -10,8 -19,16 -27,25 -35,39 -59,87 -70,138 -17,84 3,175 62,245 63,75 156,111 249,102l3 0 1 0c17,-2 34,-6 51,-11l3 -1 1 0c9,-3 19,-6 28,-10 1,-1 1,-1 2,-1 5,-2 10,-5 15,-7 6,-3 12,-7 18,-10l8 -5c15,-10 28,-20 41,-32 16,-15 30,-32 43,-50 0,-1 1,-2 1,-3 108,-164 20,-377 -152,-434l-2 -1c-1,0 -3,-1 -5,-2 -2,0 -4,-1 -6,-1l-2 -1c-16,-4 -34,-7 -51,-9l-1 0c-2,0 -4,0 -6,0l-4 0 -4 0c-3,-1 -6,-1 -8,-1l-2 0zm1 540c-73,0 -143,-33 -190,-89 -89,-105 -76,-263 30,-351 169,-142 427,-9 408,212 -11,129 -119,228 -248,228zm0 -446c-46,0 -91,17 -126,47 -133,112 -64,330 109,345 173,16 280,-187 168,-322 -38,-44 -94,-70 -151,-70zm-144 26l0 0zm421 -237l-771 0c-35,0 -35,-53 0,-53l771 0c35,0 35,53 0,53z"/>
 </g>
</svg>
