<?xml version="1.0" encoding="UTF-8"?>
<!DOCTYPE svg PUBLIC "-//W3C//DTD SVG 1.1//EN" "http://www.w3.org/Graphics/SVG/1.1/DTD/svg11.dtd">
<!-- Creator: CorelDRAW -->
<svg xmlns="http://www.w3.org/2000/svg" xml:space="preserve" width="7.11111in" height="7.11111in" version="1.1" style="shape-rendering:geometricPrecision; text-rendering:geometricPrecision; image-rendering:optimizeQuality; fill-rule:evenodd; clip-rule:evenodd"
viewBox="0 0 7111 7111"
 xmlns:xlink="http://www.w3.org/1999/xlink">
 <defs>
  <style type="text/css">
   <![CDATA[
    .fil0 {fill:black}
   ]]>
  </style>
 </defs>
 <g id="Layer_x0020_1">
  <metadata id="CorelCorpID_0Corel-Layer"/>
  <path class="fil0" d="M6083 6672c-206,0 -373,-167 -373,-373 0,-205 167,-373 373,-373 206,0 373,168 373,373 0,206 -167,373 -373,373zm-5230 -4624l-789 -456c-37,-21 -60,-61 -60,-104l0 -911c0,-44 23,-84 60,-105l789 -456c38,-21 84,-21 121,0l789 456c38,21 61,61 61,105l0 911c0,43 -23,83 -61,104l-789 456c-37,22 -84,21 -121,0zm-607 -630l668 386 668 -386 0 -772 -668 -385 -668 385 0 772zm668 94c-265,0 -480,-215 -480,-480 0,-265 215,-480 480,-480 264,0 480,215 480,480 0,265 -216,480 -480,480zm0 -718c-132,0 -238,107 -238,238 0,131 106,238 238,238 131,0 238,-107 238,-238 0,-131 -107,-238 -238,-238zm3271 4025l-789 -455c-37,-22 -60,-62 -60,-105l0 -911c0,-43 23,-83 60,-105l789 -455c38,-22 84,-22 121,0l789 455c38,22 61,62 61,105l0 911c0,43 -23,83 -61,105l-789 455c-37,22 -84,22 -121,0zm-608 -630l669 386 668 -386 0 -771 -668 -386 -669 386 0 771zm669 95c-265,0 -480,-216 -480,-480 0,-265 215,-480 480,-480 264,0 480,215 480,480 0,264 -216,480 -480,480zm0 -719c-132,0 -239,107 -239,239 0,131 107,238 239,238 131,0 238,-107 238,-238 0,-132 -107,-239 -238,-239zm-57 3546l-4064 0c-67,0 -121,-54 -121,-121l0 -1022c0,-630 512,-1142 1142,-1142l272 0 163 -292c-240,-177 -397,-462 -397,-783l0 -1097c0,-366 298,-664 664,-664l617 0c366,0 664,298 664,664l0 1097c0,321 -156,606 -397,783l163 292 272 0c630,0 1142,512 1142,1142l0 1022c0,67 -54,121 -120,121zm-2579 -2134c16,287 255,517 547,517 291,0 530,-230 546,-517l-182 -325c-231,94 -498,94 -729,0l-182 325zm-1364 1892l504 0 0 -377 -504 0 0 377zm746 0l168 0 0 -429c0,-67 54,-121 121,-121l87 0 0 -1252 -222 0c-496,0 -900,405 -900,901l0 282 504 0 0 -108c0,-67 54,-121 121,-121 66,0 121,54 121,121l0 727zm2161 0l169 0 0 -727c0,-67 54,-121 121,-121 66,0 121,54 121,121l0 108 504 0 0 -282c0,-496 -405,-901 -901,-901l-221 0 0 1252 86 0c67,0 121,54 121,121l0 429zm411 0l504 0 0 -377 -504 0 0 377zm-860 -1355c-305,294 -790,294 -1094,0l0 805 1094 0 0 -805zm-1278 -2195l0 432c0,408 335,730 731,730 395,0 730,-322 730,-730l0 -432 -1461 0zm-24 3550l1509 0 0 -308 -1509 0 0 308zm24 -3792l1461 0 0 -224 -1461 0 0 224zm1459 -466c-22,-213 -202,-379 -420,-379l-617 0c-218,0 -398,166 -420,379l1457 0zm1346 -188l-400 0c-55,0 -103,-37 -117,-90l-85 -328c-29,-14 -57,-31 -84,-48l-326 90c-53,14 -110,-9 -137,-56l-200 -347c-28,-47 -19,-108 20,-146l241 -238 0 -97 -241 -237c-39,-39 -48,-99 -20,-147l200 -346c27,-48 84,-71 137,-56l326 90c27,-18 55,-34 84,-49l85 -327c14,-54 62,-91 117,-91l400 0c55,0 103,37 117,91l85 327c29,15 57,31 84,49l327 -90c53,-15 109,8 137,56l199 346c28,48 20,108 -19,147l-242 237 0 97 242 238c39,38 47,99 19,146l-199 347c-28,47 -84,70 -137,56l-327 -90c-27,17 -55,34 -84,48l-85 328c-14,53 -62,90 -117,90zm-306 -242l212 0 76 -292c10,-36 36,-66 70,-81 49,-20 96,-47 138,-80 30,-22 69,-30 106,-20l291 81 106 -185 -215 -211c-54,-54 -30,-111 -30,-181 0,-71 -24,-128 30,-181l215 -212 -106 -184 -291 80c-37,10 -76,3 -106,-20 -42,-32 -89,-59 -138,-80 -34,-15 -60,-45 -70,-81l-76 -292 -212 0 -76 292c-9,36 -35,66 -70,81 -49,21 -95,48 -138,80 -30,23 -69,30 -105,20l-291 -80 -107 184 215 212c54,53 31,110 31,181 0,70 23,127 -31,180l-215 212 107 185 291 -81c36,-10 75,-2 105,20 43,33 89,60 138,80 35,15 61,45 70,81l76 292zm106 -493c-262,0 -476,-214 -476,-476 0,-263 214,-476 476,-476 263,0 476,213 476,476 0,262 -213,476 -476,476zm0 -710c-129,0 -234,105 -234,234 0,129 105,234 234,234 129,0 234,-105 234,-234 0,-129 -105,-234 -234,-234zm2052 6133c-448,0 -812,-364 -812,-812 0,-218 88,-425 241,-577l0 -2392c-281,-189 -453,-509 -453,-851 0,-381 209,-728 546,-906 76,-40 170,10 177,96l55 628 492 0 55 -628c7,-86 101,-136 177,-96 337,178 546,525 546,906 0,342 -172,662 -453,851l0 2392c154,152 241,359 241,577 0,448 -364,812 -812,812zm-523 -5214c-393,353 -330,995 134,1261 37,22 60,62 60,105l0 2512c0,35 -15,69 -42,92 -126,108 -199,266 -199,432 0,315 256,570 570,570 314,0 570,-255 570,-570 0,-166 -73,-324 -199,-432 -27,-23 -42,-57 -42,-92l0 -2512c0,-43 23,-83 60,-105 464,-267 528,-908 134,-1261l-46 531c-6,63 -58,111 -121,111l-712 0c-63,0 -115,-48 -121,-111l-46 -531zm523 4271c-72,0 -131,59 -131,131 0,73 59,132 131,132 72,0 131,-59 131,-132 0,-72 -59,-131 -131,-131z"/>
 </g>
</svg>
